#!OML:ASF X:\für Bonn\!DataBase\2005_08_10_Bjorn_Final\c3d\bjorn.ASF
:FULLY-SPECIFIED
:DEGREES
789
root -1.33874 1.46408 21.3712 -444.857 -174.726 8.61716
lowerback -6.09588 -0.99047 -7.44223
upperback 1.57658 -0.675697 -3.60589
thorax 5.12152 -0.557645 0.334357
lowerneck -14.087 -4.98586 -1.47071
upperneck 1.88167 -6.97581 4.63716
head 3.35063 -3.40047 1.27531
rclavicle 3.18055e-015 -1.10325e-014
rhumerus -238.359 -127.386 184.202
rradius 11.2182
rwrist 89.3634
rhand -15.667 0.581952
rfingers 7.12502
rthumb 10.5214 -29.1347
lclavicle 3.18055e-015 -1.10325e-014
lhumerus -385.828 53.2391 -343.713
lradius 12.5339
lwrist -92.9783
lhand -19.6543 7.69701
lfingers 7.12502
lthumb 6.67354 37.5719
rfemur -194.564 -155.054 186.928
rtibia 31.2596
rfoot 4.36283 -11.4958
rtoes 14.583
lfemur -12.9197 3.13855 -21.7874
ltibia 22.3195
lfoot 9.90326 5.68613
ltoes -3.98942
790
root -1.33878 1.46403 21.371 -444.878 -174.746 8.61943
lowerback -6.06067 -1.00316 -7.44128
upperback 1.57436 -0.695858 -3.58713
thorax 5.10064 -0.566596 0.352076
lowerneck -14.0981 -4.9682 -1.45826
upperneck 1.89373 -6.95143 4.612
head 3.35441 -3.38839 1.26634
rclavicle -4.05521e-014 4.27387e-015
rhumerus -238.262 -127.4 184.116
rradius 11.2118
rwrist 89.3276
rhand -15.6935 0.556686
rfingers 7.12502
rthumb 10.4959 -29.1613
lclavicle -4.05521e-014 4.27387e-015
lhumerus -385.961 53.3432 -343.831
lradius 12.5261
lwrist -93.1493
lhand -19.5157 7.45311
lfingers 7.12502
lthumb 6.80731 37.3237
rfemur -194.535 -155.063 186.939
rtibia 31.2532
rfoot 4.3582 -11.4986
rtoes 14.647
lfemur -12.9024 3.13665 -21.7644
ltibia 22.3305
lfoot 9.88958 5.70958
ltoes -3.98975
791
root -1.33855 1.4643 21.371 -444.891 -174.764 8.62944
lowerback -6.04119 -1.01604 -7.45843
upperback 1.58187 -0.712597 -3.54961
thorax 5.09935 -0.575103 0.39926
lowerneck -14.1463 -4.96957 -1.50904
upperneck 1.9146 -6.94321 4.61004
head 3.37296 -3.38329 1.27406
rclavicle 5.56597e-015 -1.02374e-014
rhumerus -238.316 -127.305 184.244
rradius 11.2271
rwrist 89.4449
rhand -15.7225 0.554011
rfingers 7.12502
rthumb 10.4678 -29.1654
lclavicle 5.56597e-015 -1.02374e-014
lhumerus -386.076 53.4163 -343.897
lradius 12.5128
lwrist -93.2943
lhand -19.392 7.19871
lfingers 7.12502
lthumb 6.92678 37.0654
rfemur -194.511 -155.066 186.954
rtibia 31.2448
rfoot 4.35028 -11.5034
rtoes 14.7118
lfemur -12.895 3.14573 -21.7417
ltibia 22.3449
lfoot 9.87171 5.72178
ltoes -3.80407
792
root -1.33861 1.46425 21.3708 -444.912 -174.783 8.6317
lowerback -6.0061 -1.02251 -7.44635
upperback 1.5752 -0.725847 -3.54164
thorax 5.07307 -0.580205 0.4004
lowerneck -14.1843 -4.96307 -1.49262
upperneck 1.97666 -6.93631 4.59223
head 3.4003 -3.37832 1.2644
rclavicle 7.71285e-014 -6.32135e-014
rhumerus -238.283 -127.313 184.203
rradius 11.2347
rwrist 89.4076
rhand -15.7281 0.523443
rfingers 7.12502
rthumb 10.4625 -29.1962
lclavicle 7.71285e-014 -6.32135e-014
lhumerus -386.089 53.2448 -343.872
lradius 12.5146
lwrist -93.1943
lhand -19.3013 7.02769
lfingers 7.12502
lthumb 7.01428 36.8915
rfemur -194.484 -155.032 186.969
rtibia 31.2354
rfoot 4.38825 -11.4843
rtoes 14.5132
lfemur -12.8792 3.14383 -21.7188
ltibia 22.3591
lfoot 9.84415 5.76582
ltoes -3.6212
793
root -1.33889 1.46446 21.3714 -444.921 -174.784 8.62075
lowerback -5.99257 -1.02613 -7.45875
upperback 1.58076 -0.730651 -3.52686
thorax 5.07199 -0.582946 0.422358
lowerneck -14.2113 -4.96036 -1.5116
upperneck 1.97536 -6.92727 4.57762
head 3.40486 -3.37397 1.26303
rclavicle -2.78299e-014 1.76918e-014
rhumerus -238.57 -127.102 184.604
rradius 11.2265
rwrist 89.7475
rhand -15.778 0.509171
rfingers 7.12502
rthumb 10.4143 -29.2129
lclavicle -2.78299e-014 1.76918e-014
lhumerus -386.07 53.0847 -343.797
lradius 12.5203
lwrist -93.073
lhand -19.2448 6.90867
lfingers 7.12502
lthumb 7.06886 36.7706
rfemur -194.469 -155.026 186.964
rtibia 31.2246
rfoot 4.407 -11.4748
rtoes 14.5043
lfemur -12.8732 3.13555 -21.7183
ltibia 22.3742
lfoot 9.81129 5.81525
ltoes -3.4699
794
root -1.33959 1.46472 21.3713 -444.932 -174.803 8.61293
lowerback -5.97141 -1.02167 -7.44579
upperback 1.57456 -0.728407 -3.5215
thorax 5.05307 -0.580814 0.421615
lowerneck -14.1919 -4.95133 -1.47648
upperneck 1.96315 -6.91992 4.56077
head 3.39416 -3.37117 1.25235
rclavicle -2.38542e-015 -2.13694e-014
rhumerus -238.542 -127.147 184.542
rradius 11.251
rwrist 89.6778
rhand -15.7841 0.525422
rfingers 7.12502
rthumb 10.4084 -29.197
lclavicle -2.38542e-015 -2.13694e-014
lhumerus -386.06 52.9979 -343.771
lradius 12.5096
lwrist -93.0637
lhand -19.1858 6.83293
lfingers 7.12502
lthumb 7.12583 36.693
rfemur -194.451 -155.011 186.977
rtibia 31.2143
rfoot 4.43124 -11.4601
rtoes 14.4912
lfemur -12.8657 3.17716 -21.704
ltibia 22.388
lfoot 9.80646 5.78752
ltoes -3.51305
795
root -1.33963 1.46466 21.3711 -444.953 -174.822 8.61518
lowerback -5.94313 -1.03363 -7.44278
upperback 1.5835 -0.746252 -3.50405
thorax 5.04776 -0.589211 0.436709
lowerneck -14.2678 -4.94112 -1.47621
upperneck 2.00445 -6.9051 4.5436
head 3.42198 -3.3625 1.2457
rclavicle 1.66979e-014 -5.34731e-014
rhumerus -238.508 -127.108 184.533
rradius 11.247
rwrist 89.7123
rhand -15.799 0.510434
rfingers 7.12502
rthumb 10.394 -29.2127
lclavicle 1.66979e-014 -5.34731e-014
lhumerus -386.09 52.8754 -343.752
lradius 12.5067
lwrist -92.9435
lhand -19.1985 6.77353
lfingers 7.12502
lthumb 7.11357 36.634
rfemur -194.42 -155.016 186.988
rtibia 31.2028
rfoot 4.43154 -11.4626
rtoes 14.5545
lfemur -12.8495 3.17529 -21.681
ltibia 22.4013
lfoot 9.77914 5.83147
ltoes -3.25739
796
root -1.33901 1.4652 21.3714 -444.956 -174.842 8.61187
lowerback -5.9272 -1.0386 -7.44527
upperback 1.56857 -0.755129 -3.484
thorax 5.02384 -0.592547 0.458791
lowerneck -14.2681 -4.93859 -1.48196
upperneck 2.02897 -6.8985 4.52685
head 3.42993 -3.3589 1.24148
rclavicle -3.65764e-014 -7.41467e-014
rhumerus -238.526 -127.093 184.584
rradius 11.2603
rwrist 89.7878
rhand -15.7754 0.508107
rfingers 7.12502
rthumb 10.4169 -29.2138
lclavicle -3.65764e-014 -7.41467e-014
lhumerus -386.146 52.8223 -343.775
lradius 12.5007
lwrist -92.9731
lhand -19.1845 6.67837
lfingers 7.12502
lthumb 7.1271 36.5384
rfemur -194.409 -155.03 187.011
rtibia 31.1932
rfoot 4.41244 -11.4644
rtoes 14.4851
lfemur -12.8489 3.19681 -21.6572
ltibia 22.4111
lfoot 9.7811 5.8126
ltoes -3.30839
797
root -1.33905 1.46515 21.3712 -444.976 -174.861 8.61411
lowerback -5.89698 -1.0501 -7.45169
upperback 1.57296 -0.772251 -3.45777
thorax 5.0129 -0.60065 0.488505
lowerneck -14.2984 -4.92674 -1.49124
upperneck 2.04438 -6.87834 4.50634
head 3.43999 -3.34863 1.23712
rclavicle 3.65764e-014 8.64713e-015
rhumerus -238.566 -127.017 184.681
rradius 11.2676
rwrist 89.8779
rhand -15.7427 0.506522
rfingers 7.12502
rthumb 10.4484 -29.2138
lclavicle 3.65764e-014 8.64713e-015
lhumerus -386.215 52.7955 -343.803
lradius 12.4913
lwrist -92.9955
lhand -19.2068 6.63517
lfingers 7.12502
lthumb 7.10556 36.4959
rfemur -194.38 -155.035 187.022
rtibia 31.1841
rfoot 4.41192 -11.4659
rtoes 14.486
lfemur -12.8298 3.19495 -21.6342
ltibia 22.4188
lfoot 9.75618 5.85777
ltoes -3.0794
798
root -1.33908 1.46509 21.3709 -444.997 -174.88 8.61633
lowerback -5.86329 -1.05999 -7.44782
upperback 1.57127 -0.788809 -3.44188
thorax 4.9932 -0.607849 0.502001
lowerneck -14.2918 -4.91996 -1.47505
upperneck 2.03207 -6.86884 4.47645
head 3.43184 -3.34501 1.22534
rclavicle 2.14687e-014 -1.23246e-014
rhumerus -238.399 -127.076 184.495
rradius 11.2625
rwrist 89.7588
rhand -15.7379 0.470437
rfingers 7.12502
rthumb 10.453 -29.2497
lclavicle 2.14687e-014 -1.23246e-014
lhumerus -386.231 52.6347 -343.767
lradius 12.5053
lwrist -92.875
lhand -19.2126 6.58542
lfingers 7.12502
lthumb 7.09996 36.4463
rfemur -194.35 -155.04 187.034
rtibia 31.1752
rfoot 4.39703 -11.4592
rtoes 14.4499
lfemur -12.8106 3.19309 -21.6112
ltibia 22.4259
lfoot 9.73137 5.90298
ltoes -2.85035
799
root -1.33933 1.46555 21.3709 -445.008 -174.899 8.60808
lowerback -5.84766 -1.06391 -7.44153
upperback 1.57157 -0.795806 -3.42303
thorax 4.98525 -0.610702 0.517825
lowerneck -14.3008 -4.91686 -1.51193
upperneck 2.02972 -6.85875 4.49157
head 3.43485 -3.33948 1.23753
rclavicle 3.81667e-014 -3.77691e-015
rhumerus -238.344 -127.075 184.464
rradius 11.2605
rwrist 89.7565
rhand -15.7508 0.454594
rfingers 7.12502
rthumb 10.4406 -29.2662
lclavicle 3.81667e-014 -3.77691e-015
lhumerus -386.304 52.6518 -343.805
lradius 12.4966
lwrist -92.932
lhand -19.2499 6.54105
lfingers 7.12502
lthumb 7.06396 36.4032
rfemur -194.334 -155.04 187.049
rtibia 31.1664
rfoot 4.4084 -11.4525
rtoes 14.4444
lfemur -12.7952 3.10736 -21.5884
ltibia 22.4338
lfoot 9.66336 6.02912
ltoes -2.60334
